  0
SECTION
  2
HEADER
  9
$LUNITS
  70
1
  9
$AUNITS
  70
3
  0
ENDSEC
  0
SECTION
  2
TABLES
  0
ENDSEC
  0
SECTION
  2
BLOCKS
  0
ENDSEC
  0
SECTION
  2
ENTITIES
  0
LINE
  8
0
  10
3.200000000000000E-002 
  20
-2.400000000000000E-002 
  30
0.000000000000000E+000 
  11
3.200000000000000E-002 
  21
2.300000000000000E-002 
  31
0.000000000000000E+000 
  0
LINE
  8
0
  10
3.000000000000000E-003 
  20
-3.100000000000000E-002 
  30
0.000000000000000E+000 
  11
3.200000000000000E-002 
  21
-3.100000000000000E-002 
  31
0.000000000000000E+000 
  0
LINE
  8
0
  10
3.200000000000000E-002 
  20
-3.100000000000000E-002 
  30
0.000000000000000E+000 
  11
3.200000000000000E-002 
  21
-2.400000000000000E-002 
  31
0.000000000000000E+000 
  0
LINE
  8
0
  10
3.000000000000000E-003 
  20
-2.050000000000000E-002 
  30
0.000000000000000E+000 
  11
5.000000000000000E-003 
  21
-2.050000000000000E-002 
  31
0.000000000000000E+000 
  0
LINE
  8
0
  10
1.450000000000000E-002 
  20
-1.100000000000000E-002 
  30
0.000000000000000E+000 
  11
1.450000000000000E-002 
  21
-2.400000000000000E-002 
  31
0.000000000000000E+000 
  0
LINE
  8
0
  10
1.450000000000000E-002 
  20
-2.400000000000000E-002 
  30
0.000000000000000E+000 
  11
2.800000000000000E-002 
  21
-2.400000000000000E-002 
  31
0.000000000000000E+000 
  0
LINE
  8
0
  10
5.000000000000000E-003 
  20
-2.050000000000000E-002 
  30
0.000000000000000E+000 
  11
1.450000000000000E-002 
  21
-1.100000000000000E-002 
  31
0.000000000000000E+000 
  0
LINE
  8
0
  10
2.800000000000000E-002 
  20
2.300000000000000E-002 
  30
0.000000000000000E+000 
  11
3.200000000000000E-002 
  21
2.300000000000000E-002 
  31
0.000000000000000E+000 
  0
LINE
  8
0
  10
3.000000000000000E-003 
  20
-2.050000000000000E-002 
  30
0.000000000000000E+000 
  11
3.000000000000000E-003 
  21
-3.100000000000000E-002 
  31
0.000000000000000E+000 
  0
LINE
  8
0
  10
2.800000000000000E-002 
  20
2.300000000000000E-002 
  30
0.000000000000000E+000 
  11
2.800000000000000E-002 
  21
-2.400000000000000E-002 
  31
0.000000000000000E+000 
  0
LINE
  8
0
  10
2.800000000000000E-002 
  20
-2.400000000000000E-002 
  30
0.000000000000000E+000 
  11
3.200000000000000E-002 
  21
-2.400000000000000E-002 
  31
0.000000000000000E+000 
  0
LINE
  8
0
  10
3.200000000000000E-002 
  20
2.300000000000000E-002 
  30
0.000000000000000E+000 
  11
3.200000000000000E-002 
  21
3.100000000000000E-002 
  31
0.000000000000000E+000 
  0
LINE
  8
0
  10
3.200000000000000E-002 
  20
3.100000000000000E-002 
  30
0.000000000000000E+000 
  11
1.500000000000000E-002 
  21
3.100000000000000E-002 
  31
0.000000000000000E+000 
  0
LINE
  8
0
  10
1.500000000000000E-002 
  20
3.100000000000000E-002 
  30
0.000000000000000E+000 
  11
1.500000000000000E-002 
  21
2.300000000000000E-002 
  31
0.000000000000000E+000 
  0
LINE
  8
0
  10
1.500000000000000E-002 
  20
2.300000000000000E-002 
  30
0.000000000000000E+000 
  11
2.800000000000000E-002 
  21
2.300000000000000E-002 
  31
0.000000000000000E+000 
  0
LINE
  8
0
  10
1.700000000000000E-002 
  20
-2.300000000000000E-002 
  30
0.000000000000000E+000 
  11
2.500000000000000E-002 
  21
-2.300000000000000E-002 
  31
0.000000000000000E+000 
  0
LINE
  8
0
  10
2.500000000000000E-002 
  20
-2.300000000000000E-002 
  30
0.000000000000000E+000 
  11
2.500000000000000E-002 
  21
2.200000000000000E-002 
  31
0.000000000000000E+000 
  0
LINE
  8
0
  10
2.500000000000000E-002 
  20
2.200000000000000E-002 
  30
0.000000000000000E+000 
  11
1.700000000000000E-002 
  21
2.200000000000000E-002 
  31
0.000000000000000E+000 
  0
LINE
  8
0
  10
1.700000000000000E-002 
  20
2.200000000000000E-002 
  30
0.000000000000000E+000 
  11
1.700000000000000E-002 
  21
-2.300000000000000E-002 
  31
0.000000000000000E+000 
  0
LINE
  8
0
  10
1.450000000000000E-002 
  20
4.650000000000000E-002 
  30
0.000000000000000E+000 
  11
1.450000000000000E-002 
  21
-4.000000000000000E-003 
  31
0.000000000000000E+000 
  0
LINE
  8
0
  10
1.450000000000000E-002 
  20
-4.000000000000000E-003 
  30
0.000000000000000E+000 
  11
5.000000000000000E-003 
  21
-1.350000000000000E-002 
  31
0.000000000000000E+000 
  0
LINE
  8
0
  10
5.000000000000000E-003 
  20
-1.350000000000000E-002 
  30
0.000000000000000E+000 
  11
3.000000000000000E-003 
  21
-1.350000000000000E-002 
  31
0.000000000000000E+000 
  0
LINE
  8
0
  10
3.000000000000000E-003 
  20
-1.350000000000000E-002 
  30
0.000000000000000E+000 
  11
3.000000000000000E-003 
  21
2.600000000000000E-002 
  31
0.000000000000000E+000 
  0
LINE
  8
0
  10
3.000000000000000E-003 
  20
2.600000000000000E-002 
  30
0.000000000000000E+000 
  11
8.000000000000000E-003 
  21
3.150000000000000E-002 
  31
0.000000000000000E+000 
  0
LINE
  8
0
  10
8.000000000000000E-003 
  20
3.150000000000000E-002 
  30
0.000000000000000E+000 
  11
8.000000000000000E-003 
  21
4.650000000000000E-002 
  31
0.000000000000000E+000 
  0
LINE
  8
0
  10
8.000000000000000E-003 
  20
4.650000000000000E-002 
  30
0.000000000000000E+000 
  11
1.450000000000000E-002 
  21
4.650000000000000E-002 
  31
0.000000000000000E+000 
  0
LINE
  8
0
  10
8.000000000000000E-003 
  20
4.650000000000000E-002 
  30
0.000000000000000E+000 
  11
0.000000000000000E+000 
  21
4.650000000000000E-002 
  31
0.000000000000000E+000 
  0
LINE
  8
0
  10
0.000000000000000E+000 
  20
4.650000000000000E-002 
  30
0.000000000000000E+000 
  11
0.000000000000000E+000 
  21
-1.350000000000000E-002 
  31
0.000000000000000E+000 
  0
LINE
  8
0
  10
0.000000000000000E+000 
  20
-1.350000000000000E-002 
  30
0.000000000000000E+000 
  11
3.000000000000000E-003 
  21
-1.350000000000000E-002 
  31
0.000000000000000E+000 
  0
LINE
  8
0
  10
0.000000000000000E+000 
  20
0.110000000000000 
  30
0.000000000000000E+000 
  11
0.000000000000000E+000 
  21
7.500000000000000E-002 
  31
0.000000000000000E+000 
  0
LINE
  8
0
  10
0.000000000000000E+000 
  20
7.500000000000000E-002 
  30
0.000000000000000E+000 
  11
0.000000000000000E+000 
  21
4.650000000000000E-002 
  31
0.000000000000000E+000 
  0
LINE
  8
0
  10
0.000000000000000E+000 
  20
-1.350000000000000E-002 
  30
0.000000000000000E+000 
  11
0.000000000000000E+000 
  21
-7.500000000000000E-002 
  31
0.000000000000000E+000 
  0
LINE
  8
0
  10
0.000000000000000E+000 
  20
-7.500000000000000E-002 
  30
0.000000000000000E+000 
  11
0.000000000000000E+000 
  21
-0.110000000000000 
  31
0.000000000000000E+000 
  0
LINE
  8
0
  10
0.000000000000000E+000 
  20
0.110000000000000 
  30
0.000000000000000E+000 
  11
0.110000000000000 
  21
0.110000000000000 
  31
0.000000000000000E+000 
  0
LINE
  8
0
  10
0.000000000000000E+000 
  20
-0.110000000000000 
  30
0.000000000000000E+000 
  11
0.110000000000000 
  21
-0.110000000000000 
  31
0.000000000000000E+000 
  0
LINE
  8
0
  10
0.110000000000000 
  20
0.110000000000000 
  30
0.000000000000000E+000 
  11
0.110000000000000 
  21
-0.110000000000000 
  31
0.000000000000000E+000 
  0
LINE
  8
0
  10
0.000000000000000E+000 
  20
7.500000000000000E-002 
  30
0.000000000000000E+000 
  11
7.500000000000000E-002 
  21
7.500000000000000E-002 
  31
0.000000000000000E+000 
  0
LINE
  8
0
  10
7.500000000000000E-002 
  20
7.500000000000000E-002 
  30
0.000000000000000E+000 
  11
7.500000000000000E-002 
  21
-7.500000000000000E-002 
  31
0.000000000000000E+000 
  0
LINE
  8
0
  10
0.000000000000000E+000 
  20
-7.500000000000000E-002 
  30
0.000000000000000E+000 
  11
7.500000000000000E-002 
  21
-7.500000000000000E-002 
  31
0.000000000000000E+000 
  0
ENDSEC
  0
EOF
